<?xml version="1.0" encoding="UTF-8"?>
<svg id="Capa_1" data-name="Capa 1" xmlns="http://www.w3.org/2000/svg" viewBox="0 0 1920 1920">
  <defs>
    <style>
      .cls-1 {
        fill: #9d9d9c;
      }
    </style>
  </defs>
  <path class="cls-1" d="m1638.38,959.02c-113.73,17.12-226.37,39.08-334.29,80.88-55.79,21.6-108.73,48.48-153.53,89.14-54.06,49.07-75.99,115.38-95.71,182.23-40.26,136.46-60.11,276.83-76.37,417.75-6.43,55.7-11.49,111.56-17.65,172.03-7.88-74.84-14.21-145.05-22.88-214.97-16.36-132.07-39.54-262.66-74.76-391.46-34.68-126.8-114.73-205.68-234.55-251.39-112.01-42.73-228.03-66.74-347.01-83.83,13.04-1.83,26.09-3.58,39.11-5.51,13.89-2.06,27.77-4.2,41.63-6.46,97.24-15.86,192.01-40.02,283.67-77.2,111.93-45.41,183.23-123.93,216.17-240.94,36.19-128.54,59.14-259.27,75.39-391.41,8.73-70.98,15.23-142.24,23.32-218.93,4.74,48.41,8.55,91.61,13.27,134.7,16.74,152.96,40.93,304.35,78.82,453.95,35.67,140.87,121.5,228.72,256.1,275.92,99.56,34.91,201.41,58.31,305.76,72.04,7.85,1.03,15.68,2.3,23.51,3.45Z"/>
</svg>