<?xml version="1.0" encoding="UTF-8"?>
<svg id="Capa_1" data-name="Capa 1" xmlns="http://www.w3.org/2000/svg" viewBox="0 0 1920 1920">
  <defs>
    <style>
      .cls-1 {
        fill: #fff;
      }
    </style>
  </defs>
  <path class="cls-1" d="m240.87,934.27c-9.3,1.4-18.5,3.19-27.32,6.61-4.56,1.77-8.89,3.96-12.55,7.29-4.42,4.01-6.21,9.43-7.82,14.89-3.29,11.15-4.91,22.63-6.24,34.14-.53,4.55-.94,9.12-1.44,14.06-.64-6.12-1.16-11.85-1.87-17.57-1.34-10.79-3.23-21.47-6.11-31.99-2.83-10.36-9.38-16.81-19.17-20.55-9.15-3.49-18.64-5.45-28.36-6.85,1.07-.15,2.13-.29,3.2-.45,1.14-.17,2.27-.34,3.4-.53,7.95-1.3,15.69-3.27,23.18-6.31,9.15-3.71,14.98-10.13,17.67-19.69,2.96-10.51,4.83-21.19,6.16-31.99.71-5.8,1.24-11.62,1.91-17.89.39,3.96.7,7.49,1.08,11.01,1.37,12.5,3.35,24.87,6.44,37.1,2.92,11.51,9.93,18.69,20.93,22.55,8.14,2.85,16.46,4.77,24.99,5.89.64.08,1.28.19,1.92.28Z"/>
  <g>
    <path class="cls-1" d="m108.53,1060.33h-34.73v-116.68h42.26l69.8,88.11,69.63-88.11h41.57v116.68h-34.73v-75.45l-59.37,75.45h-35.07l-59.37-75.45v75.45Z"/>
    <path class="cls-1" d="m350.27,1060.33h-34.73v-116.68h34.73v116.68Z"/>
    <path class="cls-1" d="m403.47,1060.33h-34.73v-116.68h39.69l100.25,78.87v-78.87h34.73v116.68h-38.84l-101.11-80.24v80.24Z"/>
    <path class="cls-1" d="m675.49,1060.33h-113.6v-116.68h113.6c10.04,0,19.16.97,27.37,2.91,8.21,1.94,15.28,5.11,21.21,9.5,5.93,4.39,10.46,10.32,13.6,17.79,3.14,7.47,4.7,16.8,4.7,27.97s-1.6,20.87-4.79,28.4c-3.19,7.53-7.76,13.52-13.69,17.96-5.93,4.45-12.98,7.59-21.13,9.41-8.16,1.83-17.25,2.74-27.29,2.74Zm-78.87-86.91v57.14h75.62c8.1,0,14.65-.8,19.67-2.4,5.02-1.6,8.7-4.47,11.03-8.64,2.34-4.16,3.51-10.06,3.51-17.71s-1.17-13.49-3.51-17.54c-2.34-4.05-6.02-6.87-11.03-8.47-5.02-1.6-11.58-2.4-19.67-2.4h-75.62Z"/>
    <path class="cls-1" d="m961.88,1027.14c0,6.16-1.2,11.46-3.59,15.91-2.4,4.45-6.39,8.13-11.98,11.03-5.59,2.91-13.2,5.05-22.84,6.42-9.64,1.37-21.64,2.05-36.01,2.05-9.7,0-19.67-.43-29.94-1.28-10.26-.86-20.05-1.97-29.34-3.34-9.3-1.37-17.48-2.91-24.55-4.62l4.96-27.89c5.93,1.37,12.2,2.62,18.82,3.76,6.61,1.14,13.6,2.2,20.96,3.16,7.36.97,15.06,1.71,23.1,2.22,8.04.51,16.45.77,25.23.77,6.84,0,12.37-.17,16.59-.51,4.22-.34,7.47-.86,9.75-1.54,2.28-.68,3.85-1.63,4.71-2.82.86-1.2,1.28-2.65,1.28-4.36,0-2.51-.49-4.3-1.45-5.39-.97-1.08-2.42-1.88-4.36-2.4-1.94-.51-4.45-.88-7.53-1.11l-64.5-3.59c-11.98-.68-21.62-2.42-28.91-5.22-7.3-2.79-12.55-6.67-15.74-11.63-3.19-4.96-4.79-11.09-4.79-18.39,0-8.78,2.65-15.85,7.96-21.21,5.3-5.36,13.63-9.29,24.98-11.8,11.35-2.51,26.03-3.76,44.05-3.76,5.24,0,11.12.2,17.62.6,6.5.4,13.26.94,20.27,1.63,7.01.68,13.91,1.54,20.7,2.57,6.78,1.03,13.09,2.17,18.9,3.42l-5.65,26.18c-4.91-1.03-10.47-1.97-16.68-2.82-6.22-.86-12.8-1.6-19.76-2.22-6.96-.63-14.11-1.14-21.47-1.54-7.36-.4-14.69-.6-21.98-.6-7.76,0-14.06.11-18.9.34-4.85.23-8.5.68-10.95,1.37-2.45.68-4.11,1.57-4.96,2.65-.86,1.09-1.28,2.54-1.28,4.36,0,2.17.51,3.79,1.54,4.88,1.03,1.09,2.65,1.83,4.88,2.22,2.22.4,5.1.77,8.64,1.11l63.64,3.76c8.44.46,15.71,1.57,21.81,3.34,6.1,1.77,11.15,4.16,15.14,7.19,3.99,3.02,6.93,6.79,8.81,11.29,1.88,4.51,2.82,9.78,2.82,15.83Z"/>
    <path class="cls-1" d="m1133.3,1060.33h-155.68v-116.68h155.68v27.2h-120.96v19.33h117.7v22.41h-117.7v20.53h120.96v27.2Z"/>
    <path class="cls-1" d="m1184.8,1060.33h-34.73v-116.68h39.69l100.25,78.87v-78.87h34.73v116.68h-38.84l-101.11-80.24v80.24Z"/>
    <path class="cls-1" d="m1500.62,1027.14c0,6.16-1.2,11.46-3.59,15.91-2.39,4.45-6.39,8.13-11.98,11.03-5.59,2.91-13.2,5.05-22.84,6.42-9.64,1.37-21.64,2.05-36.01,2.05-9.7,0-19.67-.43-29.94-1.28-10.26-.86-20.05-1.97-29.34-3.34-9.3-1.37-17.48-2.91-24.55-4.62l4.96-27.89c5.93,1.37,12.2,2.62,18.82,3.76,6.61,1.14,13.6,2.2,20.96,3.16,7.36.97,15.06,1.71,23.1,2.22,8.04.51,16.45.77,25.23.77,6.84,0,12.37-.17,16.59-.51,4.22-.34,7.47-.86,9.75-1.54,2.28-.68,3.85-1.63,4.7-2.82.86-1.2,1.28-2.65,1.28-4.36,0-2.51-.49-4.3-1.45-5.39-.97-1.08-2.42-1.88-4.36-2.4-1.94-.51-4.45-.88-7.53-1.11l-64.5-3.59c-11.98-.68-21.62-2.42-28.91-5.22-7.3-2.79-12.55-6.67-15.74-11.63-3.19-4.96-4.79-11.09-4.79-18.39,0-8.78,2.65-15.85,7.96-21.21,5.3-5.36,13.63-9.29,24.98-11.8,11.35-2.51,26.03-3.76,44.05-3.76,5.24,0,11.12.2,17.62.6,6.5.4,13.26.94,20.27,1.63,7.01.68,13.91,1.54,20.7,2.57,6.78,1.03,13.09,2.17,18.9,3.42l-5.65,26.18c-4.91-1.03-10.47-1.97-16.68-2.82-6.22-.86-12.8-1.6-19.76-2.22-6.96-.63-14.11-1.14-21.47-1.54-7.36-.4-14.69-.6-21.98-.6-7.76,0-14.06.11-18.9.34-4.85.23-8.5.68-10.95,1.37-2.45.68-4.11,1.57-4.96,2.65-.86,1.09-1.28,2.54-1.28,4.36,0,2.17.51,3.79,1.54,4.88,1.03,1.09,2.65,1.83,4.88,2.22,2.22.4,5.1.77,8.64,1.11l63.64,3.76c8.44.46,15.71,1.57,21.81,3.34,6.1,1.77,11.15,4.16,15.14,7.19,3.99,3.02,6.93,6.79,8.81,11.29,1.88,4.51,2.82,9.78,2.82,15.83Z"/>
    <path class="cls-1" d="m1672.04,1060.33h-155.68v-116.68h155.68v27.2h-120.96v19.33h117.7v22.41h-117.7v20.53h120.96v27.2Z"/>
    <path class="cls-1" d="m1846.2,1027.14c0,6.16-1.2,11.46-3.59,15.91-2.39,4.45-6.39,8.13-11.98,11.03-5.59,2.91-13.2,5.05-22.84,6.42-9.64,1.37-21.64,2.05-36.01,2.05-9.7,0-19.67-.43-29.94-1.28-10.26-.86-20.05-1.97-29.34-3.34-9.3-1.37-17.48-2.91-24.55-4.62l4.96-27.89c5.93,1.37,12.2,2.62,18.82,3.76,6.61,1.14,13.6,2.2,20.96,3.16,7.36.97,15.06,1.71,23.1,2.22,8.04.51,16.45.77,25.23.77,6.84,0,12.37-.17,16.59-.51,4.22-.34,7.47-.86,9.75-1.54,2.28-.68,3.85-1.63,4.7-2.82.86-1.2,1.28-2.65,1.28-4.36,0-2.51-.49-4.3-1.45-5.39-.97-1.08-2.42-1.88-4.36-2.4-1.94-.51-4.45-.88-7.53-1.11l-64.5-3.59c-11.98-.68-21.62-2.42-28.91-5.22-7.3-2.79-12.55-6.67-15.74-11.63-3.19-4.96-4.79-11.09-4.79-18.39,0-8.78,2.65-15.85,7.96-21.21,5.3-5.36,13.63-9.29,24.98-11.8,11.35-2.51,26.03-3.76,44.05-3.76,5.24,0,11.12.2,17.62.6,6.5.4,13.26.94,20.27,1.63,7.01.68,13.91,1.54,20.7,2.57,6.78,1.03,13.09,2.17,18.9,3.42l-5.65,26.18c-4.91-1.03-10.47-1.97-16.68-2.82-6.22-.86-12.8-1.6-19.76-2.22-6.96-.63-14.11-1.14-21.47-1.54-7.36-.4-14.69-.6-21.98-.6-7.76,0-14.06.11-18.9.34-4.85.23-8.5.68-10.95,1.37-2.45.68-4.11,1.57-4.96,2.65-.86,1.09-1.28,2.54-1.28,4.36,0,2.17.51,3.79,1.54,4.88,1.03,1.09,2.65,1.83,4.88,2.22,2.22.4,5.1.77,8.64,1.11l63.64,3.76c8.44.46,15.71,1.57,21.81,3.34,6.1,1.77,11.15,4.16,15.14,7.19,3.99,3.02,6.93,6.79,8.81,11.29,1.88,4.51,2.82,9.78,2.82,15.83Z"/>
  </g>
</svg>